<?xml version="1.0" encoding="utf-8"?>
<!-- Generator: Adobe Illustrator 16.0.0, SVG Export Plug-In . SVG Version: 6.00 Build 0)  -->
<!DOCTYPE svg PUBLIC "-//W3C//DTD SVG 1.1//EN" "http://www.w3.org/Graphics/SVG/1.1/DTD/svg11.dtd">
<svg version="1.1" id="Layer_1" xmlns="http://www.w3.org/2000/svg" xmlns:xlink="http://www.w3.org/1999/xlink" x="0px" y="0px"
	 width="281.239px" height="32.917px" viewBox="0 0 281.239 32.917" enable-background="new 0 0 281.239 32.917"
	 xml:space="preserve">
<g>
	<g>
		<circle fill="#00A8D1" cx="103.068" cy="20.254" r="12.663"/>
		<g>
			<path fill="#FFFFFF" d="M101.059,11.953v5.324h-0.002h-0.663v-5.324h-1.332v5.324h-0.666v-5.324h-1.329l-0.001,5.991
				c0.002,0.734,0.596,1.327,1.33,1.327v7.982v1.33c0,0.368,0.299,0.666,0.666,0.666h1.332c0.367,0,0.665-0.297,0.665-0.666v-5.323
				c0,0-0.002,0-0.002-0.001v-3.988c0.736,0,1.33-0.597,1.33-1.33l0.002,0.665v-6.652H101.059z"/>
			<path fill="#FFFFFF" d="M106.381,11.953c-1.103,0-1.997,0.894-1.997,1.997v7.317h1.331v0.542v1.453v3.993v1.33
				c0,0.367,0.299,0.666,0.666,0.666h1.33c0.368,0,0.664-0.299,0.664-0.666v-1.33v-3.993v-1.994V13.95
				C108.374,12.847,107.482,11.953,106.381,11.953"/>
		</g>
	</g>
	<path fill="#00A8D1" d="M14.334,0c1.988,0,3.679,0.289,5.075,0.868c1.395,0.579,2.529,1.343,3.405,2.292
		c0.875,0.95,1.513,2.033,1.914,3.25c0.4,1.217,0.601,2.478,0.601,3.784c0,1.276-0.201,2.53-0.601,3.761
		c-0.401,1.232-1.039,2.322-1.914,3.272c-0.876,0.95-2.011,1.714-3.405,2.292c-1.396,0.579-3.087,0.868-5.075,0.868H6.989v11.396H0
		V0H14.334z M12.42,14.957c0.801,0,1.572-0.059,2.314-0.178c0.742-0.118,1.395-0.349,1.959-0.69
		c0.563-0.341,1.016-0.824,1.357-1.447c0.341-0.624,0.512-1.439,0.512-2.448c0-1.009-0.171-1.825-0.512-2.448
		c-0.341-0.624-0.794-1.105-1.357-1.447c-0.564-0.341-1.217-0.571-1.959-0.69c-0.742-0.119-1.513-0.178-2.314-0.178H6.989v9.526
		H12.42z"/>
	<path fill="#00A8D1" d="M30.982,12.152c0.652-0.979,1.483-1.765,2.493-2.359c1.009-0.593,2.144-1.016,3.406-1.269
		c1.261-0.252,2.529-0.378,3.806-0.378c1.158,0,2.33,0.082,3.517,0.245c1.187,0.164,2.271,0.483,3.25,0.957
		c0.979,0.475,1.781,1.135,2.404,1.981c0.624,0.846,0.935,1.966,0.935,3.361v11.975c0,1.039,0.059,2.033,0.178,2.982
		c0.119,0.95,0.327,1.663,0.624,2.137h-6.41c-0.119-0.356-0.216-0.719-0.29-1.091c-0.074-0.371-0.126-0.749-0.156-1.135
		c-1.009,1.039-2.196,1.766-3.561,2.181c-1.365,0.415-2.76,0.623-4.185,0.623c-1.098,0-2.122-0.133-3.071-0.4
		c-0.95-0.267-1.781-0.683-2.493-1.247c-0.712-0.563-1.269-1.275-1.669-2.137c-0.4-0.86-0.601-1.884-0.601-3.071
		c0-1.306,0.229-2.382,0.69-3.228c0.46-0.846,1.053-1.521,1.781-2.025c0.727-0.504,1.558-0.883,2.493-1.135
		c0.935-0.251,1.876-0.452,2.827-0.601c0.95-0.148,1.884-0.267,2.805-0.356c0.919-0.089,1.736-0.223,2.448-0.4
		c0.712-0.178,1.275-0.438,1.691-0.779c0.416-0.341,0.608-0.838,0.579-1.491c0-0.682-0.111-1.224-0.333-1.625
		c-0.223-0.401-0.52-0.712-0.891-0.935c-0.371-0.223-0.801-0.371-1.291-0.445c-0.489-0.074-1.017-0.111-1.58-0.111
		c-1.247,0-2.226,0.267-2.938,0.801s-1.128,1.424-1.247,2.671h-6.321C29.958,14.363,30.329,13.132,30.982,12.152z M43.468,21.078
		c-0.4,0.133-0.831,0.245-1.291,0.333c-0.46,0.089-0.942,0.164-1.447,0.223c-0.505,0.06-1.009,0.134-1.513,0.223
		c-0.475,0.089-0.942,0.208-1.402,0.356c-0.46,0.149-0.861,0.349-1.202,0.601c-0.342,0.252-0.617,0.572-0.824,0.957
		c-0.208,0.386-0.312,0.876-0.312,1.469c0,0.564,0.104,1.039,0.312,1.424c0.207,0.386,0.49,0.69,0.846,0.913
		s0.771,0.378,1.247,0.467c0.474,0.089,0.964,0.134,1.469,0.134c1.247,0,2.21-0.208,2.894-0.624
		c0.682-0.415,1.187-0.913,1.514-1.491c0.326-0.579,0.526-1.164,0.601-1.758c0.074-0.593,0.111-1.068,0.111-1.424v-2.359
		C44.203,20.759,43.869,20.944,43.468,21.078z"/>
	<path fill="#00A8D1" d="M69.442,8.769v4.229h-4.629v11.396c0,1.068,0.178,1.781,0.534,2.137c0.356,0.356,1.068,0.534,2.137,0.534
		c0.356,0,0.697-0.014,1.024-0.044c0.326-0.029,0.638-0.074,0.935-0.133v4.896c-0.534,0.089-1.128,0.148-1.781,0.178
		c-0.653,0.029-1.291,0.044-1.914,0.044c-0.979,0-1.907-0.067-2.782-0.2c-0.875-0.134-1.647-0.393-2.314-0.779
		c-0.668-0.385-1.195-0.935-1.581-1.647s-0.579-1.647-0.579-2.804V12.998h-3.828V8.769h3.828V1.87h6.321v6.899H69.442z"/>
	<path fill="#00A8D1" d="M79.591,8.769v4.273h0.089c0.296-0.712,0.697-1.372,1.202-1.981c0.504-0.608,1.083-1.127,1.736-1.558
		c0.652-0.43,1.35-0.764,2.092-1.002c0.742-0.237,1.514-0.356,2.315-0.356c0.415,0,0.875,0.074,1.38,0.223v5.876
		c-0.297-0.059-0.653-0.111-1.068-0.156c-0.416-0.045-0.816-0.067-1.202-0.067c-1.158,0-2.137,0.193-2.938,0.579
		c-0.801,0.386-1.447,0.913-1.937,1.58c-0.49,0.668-0.839,1.447-1.046,2.337c-0.208,0.89-0.312,1.855-0.312,2.893v10.372h-6.321
		V8.769H79.591z"/>
	<path fill="#00A8D1" d="M125.529,8.769v3.205h0.134c0.801-1.335,1.84-2.307,3.116-2.916c1.276-0.608,2.582-0.913,3.917-0.913
		c1.691,0,3.079,0.23,4.162,0.69c1.083,0.46,1.937,1.098,2.56,1.914c0.623,0.817,1.061,1.811,1.313,2.982
		c0.252,1.173,0.378,2.471,0.378,3.895v14.156h-6.321V18.785c0-1.899-0.297-3.316-0.891-4.251c-0.594-0.935-1.647-1.402-3.16-1.402
		c-1.722,0-2.968,0.512-3.739,1.536c-0.772,1.024-1.158,2.708-1.158,5.052v12.063h-6.321V8.769H125.529z"/>
	<path fill="#F6871F" d="M171.023,31.783l-5.386-21.634h-0.089l-5.297,21.634h-7.078L144.759,0h6.989l5.03,21.634h0.089L162.387,0
		h6.543l5.431,21.901h0.089L179.659,0h6.855l-8.547,31.783H171.023z"/>
	<path fill="#F6871F" d="M187.76,15.291c0.563-1.498,1.365-2.774,2.404-3.828c1.039-1.053,2.285-1.87,3.739-2.448
		c1.454-0.579,3.086-0.868,4.897-0.868c1.81,0,3.45,0.29,4.918,0.868c1.469,0.579,2.723,1.395,3.762,2.448
		c1.039,1.054,1.84,2.33,2.404,3.828c0.563,1.499,0.846,3.168,0.846,5.008c0,1.84-0.282,3.502-0.846,4.986
		c-0.564,1.484-1.365,2.753-2.404,3.806c-1.039,1.054-2.292,1.863-3.762,2.426c-1.469,0.563-3.109,0.846-4.918,0.846
		c-1.811,0-3.443-0.282-4.897-0.846c-1.454-0.563-2.701-1.372-3.739-2.426c-1.039-1.053-1.84-2.321-2.404-3.806
		c-0.564-1.484-0.846-3.146-0.846-4.986C186.914,18.459,187.196,16.79,187.76,15.291z M193.502,22.992
		c0.178,0.875,0.482,1.662,0.913,2.359c0.43,0.697,1.001,1.254,1.714,1.669c0.712,0.416,1.603,0.624,2.671,0.624
		s1.965-0.208,2.693-0.624c0.727-0.415,1.306-0.972,1.736-1.669c0.43-0.697,0.734-1.484,0.912-2.359
		c0.178-0.875,0.267-1.773,0.267-2.693c0-0.919-0.089-1.825-0.267-2.715c-0.178-0.89-0.482-1.676-0.912-2.359
		c-0.431-0.682-1.009-1.239-1.736-1.669c-0.728-0.43-1.625-0.646-2.693-0.646s-1.959,0.215-2.671,0.646
		c-0.712,0.43-1.284,0.987-1.714,1.669c-0.431,0.683-0.735,1.469-0.913,2.359c-0.178,0.89-0.267,1.796-0.267,2.715
		C193.235,21.219,193.324,22.117,193.502,22.992z"/>
	<path fill="#F6871F" d="M221.947,8.769v4.273h0.089c0.296-0.712,0.697-1.372,1.202-1.981c0.504-0.608,1.083-1.127,1.736-1.558
		c0.652-0.43,1.35-0.764,2.092-1.002c0.742-0.237,1.514-0.356,2.315-0.356c0.415,0,0.875,0.074,1.38,0.223v5.876
		c-0.297-0.059-0.653-0.111-1.068-0.156c-0.416-0.045-0.816-0.067-1.202-0.067c-1.158,0-2.137,0.193-2.938,0.579
		c-0.801,0.386-1.447,0.913-1.937,1.58c-0.49,0.668-0.839,1.447-1.046,2.337c-0.208,0.89-0.312,1.855-0.312,2.893v10.372h-6.321
		V8.769H221.947z"/>
	<path fill="#F6871F" d="M241.266,0v17.049l7.968-8.28h7.479l-8.68,8.458l9.66,14.556h-7.657L243.714,21.5l-2.448,2.359v7.923
		h-6.321V0H241.266z"/>
	<path fill="#F6871F" d="M266.349,26.063c0.282,0.49,0.646,0.891,1.091,1.202c0.445,0.312,0.957,0.542,1.536,0.69
		c0.579,0.149,1.18,0.223,1.803,0.223c0.445,0,0.913-0.052,1.402-0.156c0.49-0.104,0.935-0.267,1.335-0.489
		c0.4-0.223,0.734-0.519,1.001-0.891c0.267-0.371,0.401-0.838,0.401-1.402c0-0.95-0.631-1.662-1.892-2.137
		c-1.262-0.475-3.02-0.95-5.275-1.425c-0.92-0.207-1.818-0.452-2.693-0.734c-0.875-0.282-1.654-0.652-2.337-1.113
		c-0.683-0.46-1.231-1.039-1.647-1.736c-0.416-0.697-0.623-1.551-0.623-2.56c0-1.484,0.289-2.7,0.868-3.65
		c0.579-0.949,1.342-1.699,2.292-2.248c0.949-0.549,2.018-0.935,3.205-1.157s2.404-0.334,3.65-0.334s2.455,0.119,3.628,0.356
		c1.172,0.238,2.218,0.639,3.138,1.202c0.919,0.564,1.684,1.313,2.292,2.248c0.608,0.935,0.972,2.114,1.091,3.539h-6.01
		c-0.089-1.216-0.549-2.04-1.38-2.47c-0.831-0.43-1.811-0.646-2.938-0.646c-0.356,0-0.742,0.022-1.157,0.067
		c-0.416,0.044-0.794,0.141-1.135,0.289c-0.341,0.149-0.631,0.364-0.868,0.646c-0.238,0.282-0.356,0.661-0.356,1.135
		c0,0.564,0.208,1.024,0.624,1.38c0.415,0.356,0.957,0.646,1.625,0.868c0.668,0.222,1.432,0.423,2.292,0.601
		c0.86,0.178,1.736,0.372,2.626,0.579c0.919,0.208,1.817,0.46,2.693,0.757c0.875,0.297,1.654,0.69,2.337,1.18
		c0.682,0.49,1.231,1.098,1.647,1.825c0.415,0.728,0.623,1.625,0.623,2.693c0,1.514-0.305,2.782-0.913,3.806
		c-0.608,1.024-1.402,1.848-2.381,2.471s-2.1,1.062-3.361,1.313c-1.262,0.252-2.545,0.378-3.851,0.378
		c-1.335,0-2.642-0.133-3.917-0.4s-2.411-0.712-3.405-1.335c-0.995-0.624-1.811-1.447-2.448-2.471
		c-0.638-1.024-0.987-2.307-1.046-3.851h6.009C265.926,24.988,266.067,25.573,266.349,26.063z"/>
</g>
</svg>
